<?xml version="1.0" standalone="no"?>
<!DOCTYPE svg PUBLIC "-//W3C//DTD SVG 20010904//EN"
 "http://www.w3.org/TR/2001/REC-SVG-20010904/DTD/svg10.dtd">
<svg version="1.0" xmlns="http://www.w3.org/2000/svg"
 width="40.000000pt" height="32.000000pt" viewBox="0 0 512.000000 512.000000"
 preserveAspectRatio="xMidYMid meet">

<g transform="translate(0.000000,512.000000) scale(0.100000,-0.100000)"
fill="#000000" stroke="none">
<path d="M279 5097 c-121 -41 -204 -119 -251 -234 l-23 -58 -3 -2225 c-2
-2190 -2 -2226 17 -2290 38 -123 121 -214 238 -262 l58 -23 2240 0 c1786 0
2249 3 2282 13 68 20 164 91 206 152 20 30 46 83 57 118 20 63 20 101 20 2272
0 2171 0 2209 -20 2272 -43 141 -143 237 -285 274 -41 11 -450 14 -2260 14
l-2210 -1 -66 -22z m2271 -1202 c143 -19 264 -55 395 -119 339 -164 558 -458
647 -869 19 -90 22 -132 22 -347 0 -269 -12 -358 -73 -534 -145 -417 -465
-695 -911 -792 -62 -14 -164 -17 -602 -21 l-528 -5 0 1351 0 1351 473 0 c350
0 499 -4 577 -15z"/>
<path d="M2150 2560 l0 -853 173 5 c138 5 185 10 238 27 131 42 234 133 301
265 127 251 127 861 0 1112 -65 129 -163 214 -298 260 -69 23 -100 27 -246 32
l-168 5 0 -853z"/>
</g>
</svg>
